HIERARCHY
ROOT Hips
{
	OFFSET 53.204899 -7.350234 85.795700
	CHANNELS 6 Xposition Yposition Zposition Xrotation Yrotation Zrotation
	JOINT spine
	{
		OFFSET 0.000000 -0.367607 6.392601
		CHANNELS 3 Xrotation Yrotation Zrotation
		JOINT spine1
		{
			OFFSET 0.000000 -0.000002 9.176109
			CHANNELS 3 Xrotation Yrotation Zrotation
			JOINT spine2
			{
				OFFSET 0.000000 -0.000001 8.792381
				CHANNELS 3 Xrotation Yrotation Zrotation
				JOINT Neck
				{
					OFFSET 0.000000 -1.076244 22.573708
					CHANNELS 3 Xrotation Yrotation Zrotation
					JOINT Head
					{
						OFFSET 0.000000 -0.000001 6.820114
						CHANNELS 3 Xrotation Yrotation Zrotation
						End Site
						{
							OFFSET 0.000000 5.444267 16.508499
						}
					}
				}
				JOINT RightShoulder
				{
					OFFSET -3.702209 0.515507 9.495087
					CHANNELS 3 Xrotation Yrotation Zrotation
					JOINT RightArm
					{
						OFFSET 0.000000 -0.000002 12.453697
						CHANNELS 3 Xrotation Yrotation Zrotation
						JOINT RightArmRoll
						{
							OFFSET 0.000000 -0.000001 6.286865
							CHANNELS 3 Xrotation Yrotation Zrotation
							JOINT RightForeArm
							{
								OFFSET 0.000000 -0.000003 18.311401
								CHANNELS 3 Xrotation Yrotation Zrotation
								JOINT RightForeArmRoll
								{
									OFFSET 0.000000 -0.000001 7.054825
									CHANNELS 3 Xrotation Yrotation Zrotation
									JOINT RightHand
									{
										OFFSET 0.000000 -0.000002 14.157501
										CHANNELS 3 Xrotation Yrotation Zrotation
										End Site
										{
											OFFSET 0.000000 0.000000 0.100006
										}
									}
								}
							}
						}
					}
				}
				JOINT LeftShoulder
				{
					OFFSET 3.702209 0.515507 9.495087
					CHANNELS 3 Xrotation Yrotation Zrotation
					JOINT LeftArm
					{
						OFFSET 0.000000 -0.000002 12.453697
						CHANNELS 3 Xrotation Yrotation Zrotation
						JOINT LeftArmRoll
						{
							OFFSET 0.000000 -0.000001 6.286850
							CHANNELS 3 Xrotation Yrotation Zrotation
							JOINT LeftForeArm
							{
								OFFSET 0.000000 -0.000003 18.311401
								CHANNELS 3 Xrotation Yrotation Zrotation
								JOINT LeftForeArmRoll
								{
									OFFSET 0.000000 -0.000001 7.054825
									CHANNELS 3 Xrotation Yrotation Zrotation
									JOINT LeftHand
									{
										OFFSET 0.000000 -0.000002 14.157501
										CHANNELS 3 Xrotation Yrotation Zrotation
										End Site
										{
											OFFSET 0.000000 0.000000 0.100006
										}
									}
								}
							}
						}
					}
				}
			}
		}
	}
	JOINT RightUpLeg
	{
		OFFSET -5.666161 0.871610 -1.039032
		CHANNELS 3 Xrotation Yrotation Zrotation
		JOINT RightUpLegRoll
		{
			OFFSET 0.000000 -0.000003 16.600502
			CHANNELS 3 Xrotation Yrotation Zrotation
			JOINT RightLeg
			{
				OFFSET 0.000000 0.000003 -20.557198
				CHANNELS 3 Xrotation Yrotation Zrotation
				JOINT RightLegRoll
				{
					OFFSET 0.000000 -0.000003 20.624397
					CHANNELS 3 Xrotation Yrotation Zrotation
					JOINT RightFoot
					{
						OFFSET 0.000000 -0.000003 17.166405
						CHANNELS 3 Xrotation Yrotation Zrotation
						JOINT RightToeBase
						{
							OFFSET 0.000000 -0.000002 14.350204
							CHANNELS 3 Xrotation Yrotation Zrotation
							End Site
							{
								OFFSET 0.006081 0.801060 6.949707
							}
						}
					}
				}
			}
		}
	}
	JOINT LeftUpLeg
	{
		OFFSET 5.666161 0.871610 -1.039032
		CHANNELS 3 Xrotation Yrotation Zrotation
		JOINT LeftUpLegRoll
		{
			OFFSET 0.000000 -0.000003 16.600601
			CHANNELS 3 Xrotation Yrotation Zrotation
			JOINT LeftLeg
			{
				OFFSET 0.000000 -0.000003 20.557098
				CHANNELS 3 Xrotation Yrotation Zrotation
				JOINT LeftLegRoll
				{
					OFFSET 0.000000 -0.000003 20.815094
					CHANNELS 3 Xrotation Yrotation Zrotation
					JOINT LeftFoot
					{
						OFFSET 0.000000 -0.000003 16.975708
						CHANNELS 3 Xrotation Yrotation Zrotation
						JOINT LeftToeBase
						{
							OFFSET 0.000000 -0.000002 14.350204
							CHANNELS 3 Xrotation Yrotation Zrotation
							End Site
							{
								OFFSET -0.027260 0.801060 6.949707
							}
						}
					}
				}
			}
		}
	}
}
MOTION
Frames: 12
Frame Time: 0.041667
52.531296 -6.735944 85.631104 -6.023406 1.954051 0.504748 -0.901701 0.018693 -0.076399 2.199430 0.037907 -0.147035 3.844500 0.036167 -0.147466 11.504024 0.795163 -1.386080 2.720123 1.205780 -1.633924 8.082310 -54.434128 10.273514 -42.492625 -124.628631 -97.324171 -0.000004 0.000005 -0.000005 110.320976 10.424042 -23.402158 0.000001 -0.000019 -3.000001 -5.000222 -7.998690 0.000172 1.219306 49.362098 -2.787785 -47.959082 127.173464 79.959098 -0.000004 0.000002 0.000001 102.164863 -3.161562 12.522977 -0.000006 0.000007 3.003010 -5.000229 7.998734 -0.000160 5.234935 -176.941788 0.413177 -179.999991 0.000005 -1.209007 174.958369 -2.223378 -0.474096 0.000000 -0.000003 0.041338 68.888175 6.923721 2.063144 25.456858 -7.355623 -0.000002 3.481750 171.385702 -2.580921 -0.000004 -0.000004 -1.048580 -8.737785 1.333596 0.756965 -0.000006 0.000001 -0.000452 70.080466 -6.087997 -4.188946 25.458173 7.355623 -0.001795 
52.533600 -6.729245 85.630203 -6.011913 1.960188 0.509828 -0.903790 0.019169 -0.074595 2.195260 0.038918 -0.143659 3.840331 0.037216 -0.144103 11.541164 0.735171 -1.390028 2.617744 1.262981 -1.636069 7.707005 -54.473897 9.820730 -42.511801 -124.679625 -97.586041 -0.000003 0.000007 -0.000009 110.205061 10.461779 -23.380030 -0.000001 -0.000018 -3.000001 -5.000221 -7.998693 0.000175 1.158227 49.360220 -2.712362 -47.921410 127.122347 79.964733 -0.000002 0.000002 0.000001 102.034468 -3.143134 12.485388 -0.000005 0.000008 3.003010 -5.000231 7.998733 -0.000164 5.227574 -176.955694 0.396827 -179.999991 0.000005 -1.209007 174.963519 -2.211434 -0.473840 0.000000 -0.000003 0.041338 68.891016 6.923709 2.063064 25.456856 -7.355623 -0.000002 3.461989 171.378530 -2.580530 -0.000005 -0.000004 -1.048450 -8.750855 1.332254 0.757207 -0.000006 0.000001 -0.000608 70.084878 -6.085530 -4.195570 25.458169 7.355623 -0.001795 
52.531300 -6.736015 85.631195 -5.998635 1.966889 0.515192 -0.906749 0.019937 -0.072580 2.189341 0.040517 -0.139915 3.834412 0.038858 -0.140380 11.588791 0.664852 -1.394395 2.506097 1.329218 -1.638081 7.314088 -54.518642 9.345819 -42.544941 -124.757421 -97.860703 -0.000003 0.000007 -0.000006 110.064462 10.496995 -23.336047 0.000003 -0.000019 -2.999999 -5.000221 -7.998691 0.000175 1.111841 49.355268 -2.655655 -47.884732 127.069440 79.956209 -0.000002 0.000003 0.000003 101.893124 -3.121763 12.438252 -0.000005 0.000010 3.003012 -5.000230 7.998735 -0.000161 5.218535 -176.971581 0.378655 -179.999991 0.000005 -1.209007 174.969065 -2.196512 -0.474320 -0.000000 -0.000003 0.041338 68.894069 6.923709 2.063073 25.456858 -7.355621 -0.000002 3.439610 171.370334 -2.579939 -0.000004 -0.000004 -1.048330 -8.765212 1.330859 0.757457 -0.000005 0.000001 -0.000763 70.089748 -6.082857 -4.202733 25.458168 7.355623 -0.001795 
52.534401 -6.736301 85.626793 -5.983737 1.973994 0.520675 -0.910505 0.020962 -0.070417 2.181830 0.042633 -0.135921 3.826902 0.041019 -0.136413 11.645518 0.586090 -1.398950 2.387143 1.402912 -1.639798 6.909243 -54.566665 8.855856 -42.590249 -124.855489 -98.145652 -0.000004 0.000005 -0.000009 109.903864 10.530267 -23.274715 0.000002 -0.000018 -2.999996 -5.000219 -7.998695 0.000173 1.078441 49.347990 -2.615429 -47.847753 127.015168 79.933444 -0.000002 -0.000002 0.000004 101.743946 -3.097793 12.384680 -0.000006 0.000010 3.003006 -5.000232 7.998730 -0.000163 5.207875 -176.987454 0.359251 -179.999991 0.000006 -1.209007 174.974762 -2.181589 -0.473786 0.000000 -0.000003 0.041338 68.897245 6.923717 2.063075 25.456856 -7.355621 -0.000002 3.415006 171.362138 -2.579098 -0.000005 -0.000005 -1.048200 -8.780452 1.329470 0.757714 -0.000006 0.000001 -0.000918 70.094891 -6.080029 -4.210354 25.458171 7.355622 -0.001793 
52.530499 -6.727393 85.626495 -5.967331 1.981334 0.526106 -0.914981 0.022212 -0.068166 2.172881 0.045193 -0.131794 3.817941 0.043628 -0.132317 11.709954 0.500772 -1.403474 2.262879 1.482514 -1.641085 6.498210 -54.615945 8.357973 -42.643309 -124.969649 -98.434938 -0.000004 0.000004 -0.000007 109.728034 10.561026 -23.200414 0.000002 -0.000017 -3.000002 -5.000221 -7.998695 0.000172 1.056317 49.339292 -2.589428 -47.812905 126.957302 79.901131 -0.000002 0.000001 -0.000000 101.590021 -3.071771 12.326824 -0.000006 0.000009 3.003008 -5.000235 7.998735 -0.000157 5.195614 -177.005322 0.338837 -179.999991 0.000005 -1.209007 174.980540 -2.165675 -0.474162 0.000000 -0.000002 0.041338 68.900612 6.923697 2.062960 25.456860 -7.355622 -0.000003 3.388568 171.352917 -2.578033 -0.000005 -0.000005 -1.048080 -8.796153 1.328110 0.757967 -0.000005 0.000001 -0.001073 70.100226 -6.077146 -4.218155 25.458178 7.355622 -0.001794 
52.530697 -6.731145 85.631302 -5.949567 1.988748 0.531318 -0.920105 0.023653 -0.065889 2.162631 0.048128 -0.127649 3.807691 0.046609 -0.128210 11.780808 0.410783 -1.407753 2.135277 1.566432 -1.641817 6.086859 -54.664811 7.859438 -42.704054 -125.092920 -98.727796 -0.000004 0.000008 -0.000008 109.541611 10.589574 -23.116618 0.000002 -0.000016 -3.000002 -5.000222 -7.998693 0.000175 1.043752 49.330003 -2.575385 -47.777744 126.896896 79.857889 -0.000004 0.000003 -0.000003 101.434340 -3.044491 12.266872 -0.000005 0.000010 3.003011 -5.000234 7.998732 -0.000163 5.181807 -177.022179 0.318094 -179.999991 0.000005 -1.209007 174.986182 -2.149744 -0.474558 0.000000 -0.000003 0.041338 68.903877 6.923673 2.062950 25.456860 -7.355622 -0.000002 3.360695 171.344680 -2.576607 -0.000004 -0.000004 -1.047970 -8.811891 1.326827 0.758207 -0.000006 0.000001 -0.001227 70.105478 -6.074328 -4.225973 25.458174 7.355622 -0.001794 
52.530300 -6.732957 85.629196 -5.930571 1.996078 0.536145 -0.925803 0.025251 -0.063648 2.151242 0.051365 -0.123607 3.796311 0.049892 -0.124207 11.856485 0.318015 -1.411604 2.006337 1.653117 -1.641883 5.681199 -54.711875 7.367699 -42.768496 -125.221300 -99.018495 -0.000003 0.000008 -0.000008 109.349170 10.616289 -23.025876 0.000002 -0.000020 -3.000000 -5.000221 -7.998693 0.000170 1.039030 49.320844 -2.571065 -47.742845 126.833075 79.806253 -0.000004 0.000001 0.000001 101.280053 -3.016568 12.204960 -0.000010 0.000005 3.003005 -5.000233 7.998737 -0.000163 5.166465 -177.039050 0.297335 -179.999991 0.000005 -1.209007 174.991632 -2.134819 -0.474042 0.000000 -0.000003 0.041338 68.907040 6.923678 2.062955 25.456858 -7.355621 -0.000002 3.331803 171.336443 -2.574858 -0.000004 -0.000004 -1.047850 -8.827261 1.325656 0.758430 -0.000006 0.000001 -0.001379 70.110642 -6.071604 -4.233511 25.458173 7.355622 -0.001795 
52.531200 -6.732212 85.633202 -5.910505 2.003163 0.540419 -0.931994 0.026975 -0.061504 2.138871 0.054833 -0.119781 3.783922 0.053404 -0.120423 11.935695 0.224356 -1.414835 1.878037 1.740975 -1.641217 5.287288 -54.755653 6.890218 -42.836703 -125.347959 -99.306197 -0.000003 0.000006 -0.000007 109.155562 10.641041 -22.931570 0.000002 -0.000018 -3.000003 -5.000221 -7.998695 0.000171 1.040435 49.312637 -2.574203 -47.708841 126.764964 79.748339 -0.000002 0.000004 0.000005 101.130069 -2.988810 12.143284 -0.000006 0.000009 3.003010 -5.000232 7.998734 -0.000163 5.149638 -177.054909 0.277058 -179.999991 0.000005 -1.209007 174.996700 -2.118900 -0.474454 0.000000 -0.000003 0.041338 68.909990 6.923671 2.062969 25.456856 -7.355622 -0.000002 3.302287 171.328206 -2.572778 -0.000004 -0.000005 -1.047740 -8.841832 1.324654 0.758630 -0.000005 0.000001 -0.001529 70.115669 -6.069074 -4.240591 25.458169 7.355623 -0.001795 
52.538395 -6.736874 85.632408 -5.889488 2.009824 0.543972 -0.938605 0.028789 -0.059519 2.125641 0.058462 -0.116290 3.770703 0.057071 -0.116977 12.017132 0.131696 -1.417284 1.752352 1.828435 -1.639779 4.911357 -54.795179 6.434668 -42.905052 -125.468963 -99.585469 -0.000004 0.000007 -0.000005 108.965396 10.664122 -22.838269 0.000001 -0.000019 -3.000004 -5.000220 -7.998693 0.000172 1.046250 49.306080 -2.582535 -47.676233 126.691635 79.686588 -0.000002 -0.000000 0.000002 100.987523 -2.961888 12.084934 -0.000005 0.000011 3.003012 -5.000234 7.998735 -0.000164 5.131362 -177.070769 0.257576 -179.999991 0.000005 -1.209007 175.001222 -2.104967 -0.474079 0.000000 -0.000003 0.041338 68.912736 6.923649 2.062892 25.456861 -7.355622 -0.000002 3.272551 171.320966 -2.570289 -0.000005 -0.000004 -1.047640 -8.855203 1.323845 0.758796 -0.000005 0.000001 -0.001677 70.120156 -6.066885 -4.246862 25.458173 7.355622 -0.001795 
52.536999 -6.735674 85.631302 -5.867653 2.015921 0.546640 -0.945565 0.030662 -0.057754 2.111731 0.062180 -0.113251 3.756782 0.060823 -0.113984 12.099205 0.041930 -1.418818 1.631278 1.913935 -1.637537 4.559641 -54.829132 6.008710 -42.975475 -125.577112 -99.857065 -0.000004 0.000006 -0.000009 108.783480 10.685693 -22.750412 0.000001 -0.000018 -2.999999 -5.000221 -7.998692 0.000173 1.054767 49.302105 -2.593825 -47.642537 126.614140 79.619611 -0.000004 0.000001 0.000003 100.855441 -2.936458 12.030071 -0.000005 0.000005 3.003009 -5.000231 7.998733 -0.000163 5.111671 -177.084607 0.239474 -179.999991 0.000005 -1.209007 175.005074 -2.092037 -0.474802 0.000001 -0.000003 0.041338 68.915058 6.923640 2.062945 25.456860 -7.355622 -0.000001 3.242990 171.313726 -2.567430 -0.000004 -0.000005 -1.047540 -8.866946 1.323280 0.758925 -0.000006 0.000001 -0.001821 70.124118 -6.065033 -4.252421 25.458171 7.355623 -0.001794 
52.524097 -6.722672 85.627693 -5.845152 2.021265 0.548255 -0.952796 0.032560 -0.056270 2.097271 0.065917 -0.110782 3.742333 0.064587 -0.111561 12.180705 -0.043050 -1.419308 1.516808 1.995881 -1.634489 4.238492 -54.856879 5.620158 -43.045382 -125.667886 -100.116824 -0.000005 0.000003 -0.000009 108.614440 10.706359 -22.669611 0.000003 -0.000017 -3.000002 -5.000223 -7.998697 0.000170 1.064273 49.301415 -2.605826 -47.610397 126.530265 79.552258 -0.000001 0.000001 0.000004 100.736821 -2.913394 11.980837 -0.000008 0.000011 3.003007 -5.000231 7.998735 -0.000163 5.090602 -177.096478 0.223154 -179.999991 0.000006 -1.209007 175.008093 -2.081078 -0.474730 0.000000 -0.000002 0.041338 68.917060 6.923614 2.062916 25.456858 -7.355623 -0.000002 3.214012 171.308480 -2.564071 -0.000004 -0.000005 -1.047440 -8.876634 1.323008 0.759010 -0.000005 0.000001 -0.001961 70.127471 -6.063614 -4.256787 25.458176 7.355622 -0.001794 
52.529495 -6.725484 85.621597 -5.822112 2.025705 0.548651 -0.960224 0.034450 -0.055130 2.082422 0.069601 -0.109000 3.727484 0.068292 -0.109823 12.260127 -0.121349 -1.418660 1.410910 2.072712 -1.630670 3.954192 -54.877264 5.276736 -43.114063 -125.736324 -100.362144 -0.000004 0.000006 -0.000010 108.462782 10.726816 -22.598371 0.000001 -0.000019 -3.000000 -5.000221 -7.998692 0.000174 1.073061 49.304929 -2.616292 -47.578251 126.440448 79.484189 -0.000003 0.000002 0.000004 100.634791 -2.893386 11.940358 -0.000008 0.000009 3.003008 -5.000229 7.998734 -0.000160 5.068196 -177.106341 0.209021 -179.999991 0.000005 -1.209007 175.010142 -2.071123 -0.474784 0.000000 -0.000003 0.041338 68.918426 6.923618 2.062932 25.456858 -7.355621 -0.000001 3.186015 171.304245 -2.560260 -0.000004 -0.000004 -1.047349 -8.883878 1.323050 0.759041 -0.000005 0.000001 -0.002096 70.129944 -6.062785 -4.259707 25.458173 7.355623 -0.001795 
